<svg width="9" height="9" viewBox="0 0 9 9" fill="none" xmlns="http://www.w3.org/2000/svg">
<path fill-rule="evenodd" clip-rule="evenodd" d="M3.6027 8.86579C3.46942 9.04473 3.25401 9.04473 3.12073 8.86579L3.01411 8.72167L3.01339 8.72264L2.90028 8.56885L2.39886 7.89564C2.3967 7.89371 2.39742 7.88984 2.39598 7.88694L0.09996 4.78111C-0.03332 4.60217 -0.03332 4.31296 0.09996 4.13402L0.822554 3.16387C0.955113 2.98589 1.17052 2.98589 1.3038 3.16387L3.36424 5.95148L7.6962 0.13348C7.82948 -0.0444934 8.04489 -0.0444934 8.17817 0.13348L8.90004 1.10363C9.03332 1.28257 9.03332 1.57178 8.90004 1.75072L3.6027 8.86579Z" fill="#EA6E6E"/>
</svg>
